<svg xmlns="http://www.w3.org/2000/svg" width="228" height="218" viewBox="0 0 228 218">
<defs><linearGradient id="bg" x2="0" y2="1"><stop stop-color="#061a24"/><stop offset="1" stop-color="#020e14"/></linearGradient><clipPath id="crop"><rect x="3" y="54" width="222" height="148"/></clipPath></defs>
<rect width="228" height="218" rx="4" fill="url(#bg)"/>
<rect x=".65" y=".65" width="226.7" height="216.7" rx="4" fill="none" stroke="#1685a8" stroke-width=".95"/>
<rect x="2" y="2" width="224" height="214" rx="3" fill="none" stroke="#11384c" stroke-width=".5"/>
<rect x="3" y="3" width="222" height="49" fill="#061c27"/>
<path d="M2 53 H226" stroke="#267a9d" stroke-width=".6"/>
<rect x="4" y="4" width="41" height="40.5" rx="2" fill="#082a3b" stroke="#18536c" stroke-width=".45"/>
<text x="12" y="31" font-family="DejaVu Sans" font-size="18" fill="#79e0ff">23</text>
<text x="62" y="31.5" font-family="DejaVu Sans" font-size="11.2" fill="#f1f7fb">SIGNAL DROPOUT</text>
<g clip-path="url(#crop)"><path d="M3 56 V199" stroke="#164054" stroke-width=".24" opacity=".42"/><path d="M9 56 V199" stroke="#164054" stroke-width=".24" opacity=".42"/><path d="M15 56 V199" stroke="#164054" stroke-width=".24" opacity=".42"/><path d="M21 56 V199" stroke="#164054" stroke-width=".24" opacity=".42"/><path d="M27 56 V199" stroke="#164054" stroke-width=".24" opacity=".42"/><path d="M33 56 V199" stroke="#164054" stroke-width=".24" opacity=".42"/><path d="M39 56 V199" stroke="#164054" stroke-width=".24" opacity=".42"/><path d="M45 56 V199" stroke="#164054" stroke-width=".24" opacity=".42"/><path d="M51 56 V199" stroke="#164054" stroke-width=".24" opacity=".42"/><path d="M57 56 V199" stroke="#164054" stroke-width=".24" opacity=".42"/><path d="M63 56 V199" stroke="#164054" stroke-width=".24" opacity=".42"/><path d="M69 56 V199" stroke="#164054" stroke-width=".24" opacity=".42"/><path d="M75 56 V199" stroke="#164054" stroke-width=".24" opacity=".42"/><path d="M81 56 V199" stroke="#164054" stroke-width=".24" opacity=".42"/><path d="M87 56 V199" stroke="#164054" stroke-width=".24" opacity=".42"/><path d="M93 56 V199" stroke="#164054" stroke-width=".24" opacity=".42"/><path d="M99 56 V199" stroke="#164054" stroke-width=".24" opacity=".42"/><path d="M105 56 V199" stroke="#164054" stroke-width=".24" opacity=".42"/><path d="M111 56 V199" stroke="#164054" stroke-width=".24" opacity=".42"/><path d="M117 56 V199" stroke="#164054" stroke-width=".24" opacity=".42"/><path d="M123 56 V199" stroke="#164054" stroke-width=".24" opacity=".42"/><path d="M129 56 V199" stroke="#164054" stroke-width=".24" opacity=".42"/><path d="M135 56 V199" stroke="#164054" stroke-width=".24" opacity=".42"/><path d="M141 56 V199" stroke="#164054" stroke-width=".24" opacity=".42"/><path d="M147 56 V199" stroke="#164054" stroke-width=".24" opacity=".42"/><path d="M153 56 V199" stroke="#164054" stroke-width=".24" opacity=".42"/><path d="M159 56 V199" stroke="#164054" stroke-width=".24" opacity=".42"/><path d="M165 56 V199" stroke="#164054" stroke-width=".24" opacity=".42"/><path d="M171 56 V199" stroke="#164054" stroke-width=".24" opacity=".42"/><path d="M177 56 V199" stroke="#164054" stroke-width=".24" opacity=".42"/><path d="M183 56 V199" stroke="#164054" stroke-width=".24" opacity=".42"/><path d="M189 56 V199" stroke="#164054" stroke-width=".24" opacity=".42"/><path d="M195 56 V199" stroke="#164054" stroke-width=".24" opacity=".42"/><path d="M201 56 V199" stroke="#164054" stroke-width=".24" opacity=".42"/><path d="M207 56 V199" stroke="#164054" stroke-width=".24" opacity=".42"/><path d="M213 56 V199" stroke="#164054" stroke-width=".24" opacity=".42"/><path d="M219 56 V199" stroke="#164054" stroke-width=".24" opacity=".42"/><path d="M3 56 H225" stroke="#164054" stroke-width=".24" opacity=".42"/><path d="M3 62 H225" stroke="#164054" stroke-width=".24" opacity=".42"/><path d="M3 68 H225" stroke="#164054" stroke-width=".24" opacity=".42"/><path d="M3 74 H225" stroke="#164054" stroke-width=".24" opacity=".42"/><path d="M3 80 H225" stroke="#164054" stroke-width=".24" opacity=".42"/><path d="M3 86 H225" stroke="#164054" stroke-width=".24" opacity=".42"/><path d="M3 92 H225" stroke="#164054" stroke-width=".24" opacity=".42"/><path d="M3 98 H225" stroke="#164054" stroke-width=".24" opacity=".42"/><path d="M3 104 H225" stroke="#164054" stroke-width=".24" opacity=".42"/><path d="M3 110 H225" stroke="#164054" stroke-width=".24" opacity=".42"/><path d="M3 116 H225" stroke="#164054" stroke-width=".24" opacity=".42"/><path d="M3 122 H225" stroke="#164054" stroke-width=".24" opacity=".42"/><path d="M3 128 H225" stroke="#164054" stroke-width=".24" opacity=".42"/><path d="M3 134 H225" stroke="#164054" stroke-width=".24" opacity=".42"/><path d="M3 140 H225" stroke="#164054" stroke-width=".24" opacity=".42"/><path d="M3 146 H225" stroke="#164054" stroke-width=".24" opacity=".42"/><path d="M3 152 H225" stroke="#164054" stroke-width=".24" opacity=".42"/><path d="M3 158 H225" stroke="#164054" stroke-width=".24" opacity=".42"/><path d="M3 164 H225" stroke="#164054" stroke-width=".24" opacity=".42"/><path d="M3 170 H225" stroke="#164054" stroke-width=".24" opacity=".42"/><path d="M3 176 H225" stroke="#164054" stroke-width=".24" opacity=".42"/><path d="M3 182 H225" stroke="#164054" stroke-width=".24" opacity=".42"/><path d="M3 188 H225" stroke="#164054" stroke-width=".24" opacity=".42"/><path d="M3 194 H225" stroke="#164054" stroke-width=".24" opacity=".42"/><path d="M3 200 H225" stroke="#164054" stroke-width=".24" opacity=".42"/></g>
<g clip-path="url(#crop)"><g stroke="#196d9f" stroke-width="2.8" opacity=".25"><path d="M5 169 V176"/>
<path d="M6 170 V176"/>
<path d="M7 165 V176"/>
<path d="M8 164 V175"/>
<path d="M9 171 V176"/>
<path d="M11 156 V175"/>
<path d="M12 150 V175"/>
<path d="M13 173 V176"/>
<path d="M32 141 V150"/>
<path d="M33 141 V152"/>
<path d="M34 145 V149"/>
<path d="M35 146 V147"/>
<path d="M36 142 V152"/>
<path d="M37 143 V151"/>
<path d="M38 144 V149"/>
<path d="M39 134 V160"/>
<path d="M40 139 V153"/>
<path d="M41 145 V149"/>
<path d="M42 145 V149"/>
<path d="M43 140 V152"/>
<path d="M44 142 V153"/>
<path d="M45 145 V149"/>
<path d="M46 146 V148"/>
<path d="M47 141 V155"/>
<path d="M48 131 V160"/>
<path d="M49 134 V160"/>
<path d="M50 143 V151"/>
<path d="M51 134 V159"/>
<path d="M52 116 V174"/>
<path d="M53 117 V174"/>
<path d="M54 140 V153"/>
<path d="M55 141 V152"/>
<path d="M56 129 V163"/>
<path d="M57 130 V164"/>
<path d="M58 140 V154"/>
<path d="M59 144 V152"/>
<path d="M60 138 V153"/>
<path d="M61 135 V158"/>
<path d="M62 145 V160"/>
<path d="M63 136 V153"/>
<path d="M64 142 V153"/>
<path d="M65 145 V148"/>
<path d="M66 145 V148"/>
<path d="M67 141 V153"/>
<path d="M68 140 V152"/>
<path d="M69 145 V148"/>
<path d="M70 138 V154"/>
<path d="M71 139 V154"/>
<path d="M72 145 V148"/>
<path d="M73 140 V154"/>
<path d="M74 129 V164"/>
<path d="M75 135 V160"/>
<path d="M76 144 V149"/>
<path d="M77 145 V149"/>
<path d="M78 141 V152"/>
<path d="M79 141 V155"/>
<path d="M80 146 V149"/>
<path d="M81 145 V148"/>
<path d="M82 139 V152"/>
<path d="M83 144 V151"/>
<path d="M84 145 V148"/>
<path d="M85 145 V148"/>
<path d="M86 142 V150"/>
<path d="M87 145 V150"/>
<path d="M88 146 V148"/>
<path d="M89 142 V153"/>
<path d="M90 143 V154"/>
<path d="M91 146 V148"/>
<path d="M92 139 V153"/>
<path d="M93 133 V161"/>
<path d="M94 134 V159"/>
<path d="M95 146 V148"/>
<path d="M96 142 V151"/>
<path d="M97 142 V152"/>
<path d="M98 146 V148"/>
<path d="M99 144 V151"/>
<path d="M100 140 V151"/>
<path d="M101 139 V150"/>
<path d="M102 143 V152"/>
<path d="M103 145 V149"/>
<path d="M104 146 V147"/>
<path d="M105 145 V149"/>
<path d="M106 143 V149"/>
<path d="M107 144 V149"/>
<path d="M195 146 V148"/>
<path d="M196 141 V151"/>
<path d="M197 141 V151"/>
<path d="M198 146 V148"/>
<path d="M199 145 V148"/>
<path d="M200 145 V148"/>
<path d="M201 146 V154"/>
<path d="M202 143 V151"/>
<path d="M203 142 V150"/>
<path d="M204 145 V149"/>
<path d="M205 145 V149"/>
<path d="M206 136 V154"/>
<path d="M207 131 V161"/>
<path d="M208 140 V150"/>
<path d="M209 144 V152"/>
<path d="M210 142 V151"/>
<path d="M211 143 V148"/>
<path d="M212 145 V148"/>
<path d="M213 140 V152"/>
<path d="M214 137 V154"/>
<path d="M215 145 V153"/>
<path d="M216 145 V148"/>
<path d="M217 145 V148"/>
<path d="M218 142 V153"/>
<path d="M219 141 V151"/>
<path d="M220 143 V150"/>
<path d="M221 133 V160"/>
<path d="M222 133 V159"/>
<path d="M223 140 V152"/></g><g stroke="#d0ecf9" stroke-width=".67" opacity=".94"><path d="M5 169 V176"/>
<path d="M6 170 V176"/>
<path d="M7 165 V176"/>
<path d="M8 164 V175"/>
<path d="M9 171 V176"/>
<path d="M11 156 V175"/>
<path d="M12 150 V175"/>
<path d="M13 173 V176"/>
<path d="M32 141 V150"/>
<path d="M33 141 V152"/>
<path d="M34 145 V149"/>
<path d="M35 146 V147"/>
<path d="M36 142 V152"/>
<path d="M37 143 V151"/>
<path d="M38 144 V149"/>
<path d="M39 134 V160"/>
<path d="M40 139 V153"/>
<path d="M41 145 V149"/>
<path d="M42 145 V149"/>
<path d="M43 140 V152"/>
<path d="M44 142 V153"/>
<path d="M45 145 V149"/>
<path d="M46 146 V148"/>
<path d="M47 141 V155"/>
<path d="M48 131 V160"/>
<path d="M49 134 V160"/>
<path d="M50 143 V151"/>
<path d="M51 134 V159"/>
<path d="M52 116 V174"/>
<path d="M53 117 V174"/>
<path d="M54 140 V153"/>
<path d="M55 141 V152"/>
<path d="M56 129 V163"/>
<path d="M57 130 V164"/>
<path d="M58 140 V154"/>
<path d="M59 144 V152"/>
<path d="M60 138 V153"/>
<path d="M61 135 V158"/>
<path d="M62 145 V160"/>
<path d="M63 136 V153"/>
<path d="M64 142 V153"/>
<path d="M65 145 V148"/>
<path d="M66 145 V148"/>
<path d="M67 141 V153"/>
<path d="M68 140 V152"/>
<path d="M69 145 V148"/>
<path d="M70 138 V154"/>
<path d="M71 139 V154"/>
<path d="M72 145 V148"/>
<path d="M73 140 V154"/>
<path d="M74 129 V164"/>
<path d="M75 135 V160"/>
<path d="M76 144 V149"/>
<path d="M77 145 V149"/>
<path d="M78 141 V152"/>
<path d="M79 141 V155"/>
<path d="M80 146 V149"/>
<path d="M81 145 V148"/>
<path d="M82 139 V152"/>
<path d="M83 144 V151"/>
<path d="M84 145 V148"/>
<path d="M85 145 V148"/>
<path d="M86 142 V150"/>
<path d="M87 145 V150"/>
<path d="M88 146 V148"/>
<path d="M89 142 V153"/>
<path d="M90 143 V154"/>
<path d="M91 146 V148"/>
<path d="M92 139 V153"/>
<path d="M93 133 V161"/>
<path d="M94 134 V159"/>
<path d="M95 146 V148"/>
<path d="M96 142 V151"/>
<path d="M97 142 V152"/>
<path d="M98 146 V148"/>
<path d="M99 144 V151"/>
<path d="M100 140 V151"/>
<path d="M101 139 V150"/>
<path d="M102 143 V152"/>
<path d="M103 145 V149"/>
<path d="M104 146 V147"/>
<path d="M105 145 V149"/>
<path d="M106 143 V149"/>
<path d="M107 144 V149"/>
<path d="M195 146 V148"/>
<path d="M196 141 V151"/>
<path d="M197 141 V151"/>
<path d="M198 146 V148"/>
<path d="M199 145 V148"/>
<path d="M200 145 V148"/>
<path d="M201 146 V154"/>
<path d="M202 143 V151"/>
<path d="M203 142 V150"/>
<path d="M204 145 V149"/>
<path d="M205 145 V149"/>
<path d="M206 136 V154"/>
<path d="M207 131 V161"/>
<path d="M208 140 V150"/>
<path d="M209 144 V152"/>
<path d="M210 142 V151"/>
<path d="M211 143 V148"/>
<path d="M212 145 V148"/>
<path d="M213 140 V152"/>
<path d="M214 137 V154"/>
<path d="M215 145 V153"/>
<path d="M216 145 V148"/>
<path d="M217 145 V148"/>
<path d="M218 142 V153"/>
<path d="M219 141 V151"/>
<path d="M220 143 V150"/>
<path d="M221 133 V160"/>
<path d="M222 133 V159"/>
<path d="M223 140 V152"/></g></g>
<path d="M3 147.4 H225" stroke="#6de0ff" stroke-width=".48" opacity=".85"/>
<rect x="4" y="199" width="220" height="4" fill="#03151f" stroke="#185069" stroke-width=".25"/><path d="M7 199 v1" stroke="#247195" stroke-width=".35"/><path d="M10 199 v2" stroke="#247195" stroke-width=".35"/><path d="M13 199 v1" stroke="#247195" stroke-width=".35"/><path d="M16 199 v1" stroke="#247195" stroke-width=".35"/><path d="M19 199 v1" stroke="#247195" stroke-width=".35"/><path d="M22 199 v1" stroke="#247195" stroke-width=".35"/><path d="M25 199 v1" stroke="#247195" stroke-width=".35"/><path d="M28 199 v1" stroke="#247195" stroke-width=".35"/><path d="M31 199 v1" stroke="#247195" stroke-width=".35"/><path d="M34 199 v1" stroke="#247195" stroke-width=".35"/><path d="M37 199 v1" stroke="#247195" stroke-width=".35"/><path d="M40 199 v2" stroke="#247195" stroke-width=".35"/><path d="M43 199 v1" stroke="#247195" stroke-width=".35"/><path d="M46 199 v1" stroke="#247195" stroke-width=".35"/><path d="M49 199 v1" stroke="#247195" stroke-width=".35"/><path d="M52 199 v1" stroke="#247195" stroke-width=".35"/><path d="M55 199 v1" stroke="#247195" stroke-width=".35"/><path d="M58 199 v1" stroke="#247195" stroke-width=".35"/><path d="M61 199 v1" stroke="#247195" stroke-width=".35"/><path d="M64 199 v1" stroke="#247195" stroke-width=".35"/><path d="M67 199 v1" stroke="#247195" stroke-width=".35"/><path d="M70 199 v2" stroke="#247195" stroke-width=".35"/><path d="M73 199 v1" stroke="#247195" stroke-width=".35"/><path d="M76 199 v1" stroke="#247195" stroke-width=".35"/><path d="M79 199 v1" stroke="#247195" stroke-width=".35"/><path d="M82 199 v1" stroke="#247195" stroke-width=".35"/><path d="M85 199 v1" stroke="#247195" stroke-width=".35"/><path d="M88 199 v1" stroke="#247195" stroke-width=".35"/><path d="M91 199 v1" stroke="#247195" stroke-width=".35"/><path d="M94 199 v1" stroke="#247195" stroke-width=".35"/><path d="M97 199 v1" stroke="#247195" stroke-width=".35"/><path d="M100 199 v2" stroke="#247195" stroke-width=".35"/><path d="M103 199 v1" stroke="#247195" stroke-width=".35"/><path d="M106 199 v1" stroke="#247195" stroke-width=".35"/><path d="M109 199 v1" stroke="#247195" stroke-width=".35"/><path d="M112 199 v1" stroke="#247195" stroke-width=".35"/><path d="M115 199 v1" stroke="#247195" stroke-width=".35"/><path d="M118 199 v1" stroke="#247195" stroke-width=".35"/><path d="M121 199 v1" stroke="#247195" stroke-width=".35"/><path d="M124 199 v1" stroke="#247195" stroke-width=".35"/><path d="M127 199 v1" stroke="#247195" stroke-width=".35"/><path d="M130 199 v2" stroke="#247195" stroke-width=".35"/><path d="M133 199 v1" stroke="#247195" stroke-width=".35"/><path d="M136 199 v1" stroke="#247195" stroke-width=".35"/><path d="M139 199 v1" stroke="#247195" stroke-width=".35"/><path d="M142 199 v1" stroke="#247195" stroke-width=".35"/><path d="M145 199 v1" stroke="#247195" stroke-width=".35"/><path d="M148 199 v1" stroke="#247195" stroke-width=".35"/><path d="M151 199 v1" stroke="#247195" stroke-width=".35"/><path d="M154 199 v1" stroke="#247195" stroke-width=".35"/><path d="M157 199 v1" stroke="#247195" stroke-width=".35"/><path d="M160 199 v2" stroke="#247195" stroke-width=".35"/><path d="M163 199 v1" stroke="#247195" stroke-width=".35"/><path d="M166 199 v1" stroke="#247195" stroke-width=".35"/><path d="M169 199 v1" stroke="#247195" stroke-width=".35"/><path d="M172 199 v1" stroke="#247195" stroke-width=".35"/><path d="M175 199 v1" stroke="#247195" stroke-width=".35"/><path d="M178 199 v1" stroke="#247195" stroke-width=".35"/><path d="M181 199 v1" stroke="#247195" stroke-width=".35"/><path d="M184 199 v1" stroke="#247195" stroke-width=".35"/><path d="M187 199 v1" stroke="#247195" stroke-width=".35"/><path d="M190 199 v2" stroke="#247195" stroke-width=".35"/><path d="M193 199 v1" stroke="#247195" stroke-width=".35"/><path d="M196 199 v1" stroke="#247195" stroke-width=".35"/><path d="M199 199 v1" stroke="#247195" stroke-width=".35"/><path d="M202 199 v1" stroke="#247195" stroke-width=".35"/><path d="M205 199 v1" stroke="#247195" stroke-width=".35"/><path d="M208 199 v1" stroke="#247195" stroke-width=".35"/><path d="M211 199 v1" stroke="#247195" stroke-width=".35"/><path d="M214 199 v1" stroke="#247195" stroke-width=".35"/><path d="M217 199 v1" stroke="#247195" stroke-width=".35"/><path d="M220 199 v2" stroke="#247195" stroke-width=".35"/>
</svg>